<svg width="48" height="48" viewBox="0 0 48 48" fill="none" xmlns="http://www.w3.org/2000/svg">
<g filter="url(#filter0_d_1082_3635)">
<path d="M4 22C4 24.6264 4.51732 27.2272 5.52241 29.6537C6.5275 32.0802 8.00069 34.285 9.85786 36.1421C11.715 37.9993 13.9198 39.4725 16.3463 40.4776C18.7728 41.4827 21.3736 42 24 42C26.6264 42 29.2272 41.4827 31.6537 40.4776C34.0802 39.4725 36.285 37.9993 38.1421 36.1421C39.9993 34.285 41.4725 32.0802 42.4776 29.6537C43.4827 27.2272 44 24.6264 44 22C44 19.3736 43.4827 16.7728 42.4776 14.3463C41.4725 11.9198 39.9993 9.71504 38.1421 7.85786C36.285 6.00069 34.0802 4.5275 31.6537 3.52241C29.2272 2.51732 26.6264 2 24 2C21.3736 2 18.7728 2.51732 16.3463 3.52241C13.9198 4.5275 11.715 6.00069 9.85786 7.85786C8.00069 9.71504 6.5275 11.9198 5.52241 14.3463C4.51732 16.7728 4 19.3736 4 22Z" fill="white"/>
</g>
<path d="M40.667 21.9999C40.667 12.797 33.2058 5.33325 24.0003 5.33325C14.7974 5.33325 7.33366 12.7944 7.33366 21.9999C7.33366 31.2054 14.7948 38.6666 24.0003 38.6666C33.2058 38.664 40.667 31.2028 40.667 21.9999Z" fill="#18C18D"/>
<path d="M24 14C24.3031 14 24.5943 14.1206 24.8086 14.335C25.0227 14.5492 25.1435 14.8397 25.1436 15.1426V20.8574H30.8574C31.1604 20.8575 31.4508 20.9781 31.665 21.1924C31.8793 21.4066 31.9999 21.697 32 22C32 22.3031 31.8794 22.5943 31.665 22.8086C31.4508 23.0227 31.1603 23.1435 30.8574 23.1436H25.1436V28.8574C25.1435 29.1603 25.0227 29.4508 24.8086 29.665C24.5943 29.8794 24.3031 30 24 30C23.697 29.9999 23.4066 29.8793 23.1924 29.665C22.9781 29.4508 22.8575 29.1604 22.8574 28.8574V23.1436H17.1426C16.8397 23.1435 16.5492 23.0227 16.335 22.8086C16.1206 22.5943 16 22.3031 16 22C16.0001 21.697 16.1207 21.4066 16.335 21.1924C16.5492 20.9781 16.8396 20.8575 17.1426 20.8574H22.8574V15.1426C22.8575 14.8396 22.9781 14.5492 23.1924 14.335C23.4066 14.1207 23.697 14.0001 24 14Z" fill="white"/>
<defs>
<filter id="filter0_d_1082_3635" x="0" y="0" width="48" height="48" filterUnits="userSpaceOnUse" color-interpolation-filters="sRGB">
<feFlood flood-opacity="0" result="BackgroundImageFix"/>
<feColorMatrix in="SourceAlpha" type="matrix" values="0 0 0 0 0 0 0 0 0 0 0 0 0 0 0 0 0 0 127 0" result="hardAlpha"/>
<feOffset dy="2"/>
<feGaussianBlur stdDeviation="2"/>
<feComposite in2="hardAlpha" operator="out"/>
<feColorMatrix type="matrix" values="0 0 0 0 0 0 0 0 0 0 0 0 0 0 0 0 0 0 0.15 0"/>
<feBlend mode="normal" in2="BackgroundImageFix" result="effect1_dropShadow_1082_3635"/>
<feBlend mode="normal" in="SourceGraphic" in2="effect1_dropShadow_1082_3635" result="shape"/>
</filter>
</defs>
</svg>
